<svg width="20" height="20" viewBox="0 0 20 20" fill="none" xmlns="http://www.w3.org/2000/svg">
<path d="M17.8177 16.9381L13.913 13.0334C14.8835 11.8662 15.4683 10.3674 15.4683 8.73438C15.4683 5.02103 12.4474 2 8.73419 2C5.02093 2 2 5.02103 2 8.73438C2 12.4475 5.02093 15.4683 8.73419 15.4683C10.3672 15.4683 11.866 14.8836 13.0332 13.913L16.938 17.8178C17.0595 17.9393 17.2187 18 17.3779 18C17.537 18 17.6963 17.9393 17.8178 17.8178C18.0607 17.5748 18.0607 17.181 17.8177 16.9381ZM3.24414 8.73438C3.24414 5.70705 5.70695 3.24414 8.73419 3.24414C11.7613 3.24414 14.2241 5.70705 14.2241 8.73438C14.2241 11.7615 11.7613 14.2241 8.73419 14.2241C5.70695 14.2241 3.24414 11.7615 3.24414 8.73438Z" fill="#C5C5C5"/>
</svg>
